<?xml version="1.0" encoding="UTF-8" standalone="no"?>
<!DOCTYPE svg PUBLIC "-//W3C//DTD SVG 1.1//EN"
 "http://www.w3.org/Graphics/SVG/1.1/DTD/svg11.dtd">
<!-- Generated by graphviz version 2.43.0 (0)
 -->
<!-- Title: pastafarianism Pages: 1 -->
<svg width="1279pt" height="569pt"
 viewBox="0.00 0.00 1279.46 569.00" xmlns="http://www.w3.org/2000/svg" xmlns:xlink="http://www.w3.org/1999/xlink">
<g id="graph0" class="graph" transform="scale(1 1) rotate(0) translate(4 565)">
<title>pastafarianism</title>
<polygon fill="white" stroke="transparent" points="-4,4 -4,-565 1275.46,-565 1275.46,4 -4,4"/>
<!-- behaviour_tree_v1 -->
<g id="node1" class="node">
<title>behaviour_tree_v1</title>
<polygon fill="gold" stroke="black" points="461.6,-561 324.63,-561 289.4,-505 426.37,-505 461.6,-561"/>
<text text-anchor="middle" x="375.5" y="-535.8" font-family="Times,serif" font-size="9.00">behaviour_tree_v1</text>
<text text-anchor="middle" x="375.5" y="-525.8" font-family="Times,serif" font-size="9.00">SuccessOnAll</text>
</g>
<!-- topics2bb -->
<g id="node2" class="node">
<title>topics2bb</title>
<polygon fill="gold" stroke="black" points="389,-469 276.85,-469 248,-413 360.15,-413 389,-469"/>
<text text-anchor="middle" x="318.5" y="-443.8" font-family="Times,serif" font-size="9.00">topics2bb</text>
<text text-anchor="middle" x="318.5" y="-433.8" font-family="Times,serif" font-size="9.00">SuccessOnAll</text>
</g>
<!-- behaviour_tree_v1&#45;&gt;topics2bb -->
<g id="edge1" class="edge">
<title>behaviour_tree_v1&#45;&gt;topics2bb</title>
<path fill="none" stroke="black" d="M358.4,-505C352.98,-496.44 346.91,-486.85 341.16,-477.78"/>
<polygon fill="black" stroke="black" points="344.09,-475.87 335.79,-469.29 338.18,-479.62 344.09,-475.87"/>
</g>
<!-- task -->
<g id="node4" class="node">
<title>task</title>
<polygon fill="orange" stroke="black" points="460.5,-459 406.5,-459 406.5,-423 460.5,-423 460.5,-459"/>
<text text-anchor="middle" x="433.5" y="-438.8" font-family="Times,serif" font-size="9.00">task</text>
</g>
<!-- behaviour_tree_v1&#45;&gt;task -->
<g id="edge3" class="edge">
<title>behaviour_tree_v1&#45;&gt;task</title>
<path fill="none" stroke="black" d="M392.9,-505C400.56,-493.11 409.51,-479.23 417.05,-467.52"/>
<polygon fill="black" stroke="black" points="420.03,-469.36 422.51,-459.06 414.15,-465.57 420.03,-469.36"/>
</g>
<!-- object_list2bb -->
<g id="node3" class="node">
<title>object_list2bb</title>
<ellipse fill="gray" stroke="black" cx="318.5" cy="-359" rx="38.21" ry="18"/>
<text text-anchor="middle" x="318.5" y="-356.8" font-family="Times,serif" font-size="9.00">object_list2bb</text>
</g>
<!-- topics2bb&#45;&gt;object_list2bb -->
<g id="edge2" class="edge">
<title>topics2bb&#45;&gt;object_list2bb</title>
<path fill="none" stroke="black" d="M318.5,-412.92C318.5,-404.72 318.5,-395.72 318.5,-387.49"/>
<polygon fill="black" stroke="black" points="322,-387.27 318.5,-377.27 315,-387.27 322,-387.27"/>
</g>
<!-- /object_list -->
<g id="node39" class="node">
<title>/object_list</title>
<polygon fill="white" stroke="blue" points="59,-17 0,-17 0,0 59,0 59,-17"/>
<text text-anchor="middle" x="29.5" y="-6.6" font-family="Times,serif" font-size="8.00" fill="blue">/object_list: &#45;</text>
</g>
<!-- object_list2bb&#45;&gt;/object_list -->
<g id="edge47" class="edge">
<title>object_list2bb&#45;&gt;/object_list</title>
<path fill="none" stroke="blue" d="M281.96,-353.43C225.98,-345.77 122.52,-328.8 94.5,-305 10.01,-233.23 20.65,-78.97 26.99,-27"/>
<polygon fill="blue" stroke="blue" points="30.47,-27.42 28.31,-17.05 23.53,-26.5 30.47,-27.42"/>
</g>
<!-- work_not_done -->
<g id="node5" class="node">
<title>work_not_done</title>
<ellipse fill="gray" stroke="black" cx="424.5" cy="-359" rx="42.29" ry="18"/>
<text text-anchor="middle" x="424.5" y="-356.8" font-family="Times,serif" font-size="9.00">work_not_done</text>
</g>
<!-- task&#45;&gt;work_not_done -->
<g id="edge4" class="edge">
<title>task&#45;&gt;work_not_done</title>
<path fill="none" stroke="black" d="M431.55,-422.64C430.38,-412.3 428.88,-398.94 427.56,-387.22"/>
<polygon fill="black" stroke="black" points="431.01,-386.6 426.42,-377.05 424.06,-387.38 431.01,-386.6"/>
</g>
<!-- work -->
<g id="node6" class="node">
<title>work</title>
<polygon fill="orange" stroke="black" points="538.5,-377 484.5,-377 484.5,-341 538.5,-341 538.5,-377"/>
<text text-anchor="middle" x="511.5" y="-356.8" font-family="Times,serif" font-size="9.00">Ⓜ work</text>
</g>
<!-- task&#45;&gt;work -->
<g id="edge5" class="edge">
<title>task&#45;&gt;work</title>
<path fill="none" stroke="black" d="M450.42,-422.64C461.33,-411.45 475.68,-396.74 487.72,-384.39"/>
<polygon fill="black" stroke="black" points="490.4,-386.65 494.88,-377.05 485.39,-381.77 490.4,-386.65"/>
</g>
<!-- /is_work_not_done -->
<g id="node40" class="node">
<title>/is_work_not_done</title>
<polygon fill="white" stroke="blue" points="208.5,-17 124.5,-17 124.5,0 208.5,0 208.5,-17"/>
<text text-anchor="middle" x="166.5" y="-6.6" font-family="Times,serif" font-size="8.00" fill="blue">/is_work_not_done: &#45;</text>
</g>
<!-- work_not_done&#45;&gt;/is_work_not_done -->
<g id="edge49" class="edge">
<title>work_not_done&#45;&gt;/is_work_not_done</title>
<path fill="none" stroke="blue" d="M388.58,-349.42C378.16,-346.5 366.89,-343.39 356.5,-341 222.87,-310.28 123.67,-358.09 67.5,-233 32.77,-155.66 109.44,-60.7 147.36,-24.49"/>
<polygon fill="blue" stroke="blue" points="150.19,-26.64 155.23,-17.31 145.48,-21.46 150.19,-26.64"/>
</g>
<!-- m_s_object_found -->
<g id="node7" class="node">
<title>m_s_object_found</title>
<polygon fill="cyan" stroke="black" points="270.24,-279.54 270.24,-294.46 239.93,-305 197.07,-305 166.76,-294.46 166.76,-279.54 197.07,-269 239.93,-269 270.24,-279.54"/>
<text text-anchor="middle" x="218.5" y="-284.8" font-family="Times,serif" font-size="9.00">m_s_object_found</text>
</g>
<!-- work&#45;&gt;m_s_object_found -->
<g id="edge6" class="edge">
<title>work&#45;&gt;m_s_object_found</title>
<path fill="none" stroke="black" d="M484.26,-344.32C481.34,-343.1 478.38,-341.96 475.5,-341 410.28,-319.22 332.63,-304.7 279.87,-296.45"/>
<polygon fill="black" stroke="black" points="280.08,-292.94 269.67,-294.88 279.02,-299.86 280.08,-292.94"/>
</g>
<!-- collect_object -->
<g id="node10" class="node">
<title>collect_object</title>
<polygon fill="orange" stroke="black" points="495.5,-305 419.5,-305 419.5,-269 495.5,-269 495.5,-305"/>
<text text-anchor="middle" x="457.5" y="-284.8" font-family="Times,serif" font-size="9.00">Ⓜ collect_object</text>
</g>
<!-- work&#45;&gt;collect_object -->
<g id="edge9" class="edge">
<title>work&#45;&gt;collect_object</title>
<path fill="none" stroke="black" d="M498.15,-340.7C491.74,-332.39 483.94,-322.28 476.89,-313.14"/>
<polygon fill="black" stroke="black" points="479.57,-310.88 470.69,-305.1 474.03,-315.16 479.57,-310.88"/>
</g>
<!-- place_object_ -->
<g id="node17" class="node">
<title>place_object_</title>
<polygon fill="orange" stroke="black" points="598,-305 533,-305 533,-269 598,-269 598,-305"/>
<text text-anchor="middle" x="565.5" y="-284.8" font-family="Times,serif" font-size="9.00">place_object_</text>
</g>
<!-- work&#45;&gt;place_object_ -->
<g id="edge16" class="edge">
<title>work&#45;&gt;place_object_</title>
<path fill="none" stroke="black" d="M524.85,-340.7C531.26,-332.39 539.06,-322.28 546.11,-313.14"/>
<polygon fill="black" stroke="black" points="548.97,-315.16 552.31,-305.1 543.43,-310.88 548.97,-315.16"/>
</g>
<!-- mark_work_done -->
<g id="node31" class="node">
<title>mark_work_done</title>
<ellipse fill="gray" stroke="black" cx="662.5" cy="-287" rx="46.38" ry="18"/>
<text text-anchor="middle" x="662.5" y="-284.8" font-family="Times,serif" font-size="9.00">mark_work_done</text>
</g>
<!-- work&#45;&gt;mark_work_done -->
<g id="edge30" class="edge">
<title>work&#45;&gt;mark_work_done</title>
<path fill="none" stroke="black" d="M538.84,-345.32C562.76,-334.24 597.75,-318.02 624.41,-305.66"/>
<polygon fill="black" stroke="black" points="626.22,-308.68 633.82,-301.3 623.27,-302.33 626.22,-308.68"/>
</g>
<!-- object_found -->
<g id="node8" class="node">
<title>object_found</title>
<ellipse fill="gray" stroke="black" cx="121.5" cy="-215" rx="36.25" ry="18"/>
<text text-anchor="middle" x="121.5" y="-212.8" font-family="Times,serif" font-size="9.00">object_found</text>
</g>
<!-- m_s_object_found&#45;&gt;object_found -->
<g id="edge7" class="edge">
<title>m_s_object_found&#45;&gt;object_found</title>
<path fill="none" stroke="black" d="M195.51,-269.41C181.74,-259.47 164.14,-246.77 149.56,-236.25"/>
<polygon fill="black" stroke="black" points="151.53,-233.35 141.37,-230.34 147.43,-239.03 151.53,-233.35"/>
</g>
<!-- wonder_around -->
<g id="node9" class="node">
<title>wonder_around</title>
<ellipse fill="gray" stroke="black" cx="218.5" cy="-215" rx="42.29" ry="18"/>
<text text-anchor="middle" x="218.5" y="-212.8" font-family="Times,serif" font-size="9.00">wonder_around</text>
</g>
<!-- m_s_object_found&#45;&gt;wonder_around -->
<g id="edge8" class="edge">
<title>m_s_object_found&#45;&gt;wonder_around</title>
<path fill="none" stroke="black" d="M218.5,-268.7C218.5,-260.98 218.5,-251.71 218.5,-243.11"/>
<polygon fill="black" stroke="black" points="222,-243.1 218.5,-233.1 215,-243.1 222,-243.1"/>
</g>
<!-- /target_obj -->
<g id="node36" class="node">
<title>/target_obj</title>
<polygon fill="white" stroke="blue" points="308.5,-17 250.5,-17 250.5,0 308.5,0 308.5,-17"/>
<text text-anchor="middle" x="279.5" y="-6.6" font-family="Times,serif" font-size="8.00" fill="blue">/target_obj: &#45;</text>
</g>
<!-- object_found&#45;&gt;/target_obj -->
<g id="edge41" class="edge">
<title>object_found&#45;&gt;/target_obj</title>
<path fill="none" stroke="blue" d="M126.39,-197C136.21,-165.31 161.05,-96.49 202.5,-53 215.66,-39.19 234.18,-28.54 249.75,-21.24"/>
<polygon fill="blue" stroke="blue" points="251.29,-24.39 259,-17.12 248.44,-17.99 251.29,-24.39"/>
</g>
<!-- m_s_object_near -->
<g id="node11" class="node">
<title>m_s_object_near</title>
<polygon fill="cyan" stroke="black" points="374.74,-207.54 374.74,-222.46 346.48,-233 306.52,-233 278.26,-222.46 278.26,-207.54 306.52,-197 346.48,-197 374.74,-207.54"/>
<text text-anchor="middle" x="326.5" y="-212.8" font-family="Times,serif" font-size="9.00">m_s_object_near</text>
</g>
<!-- collect_object&#45;&gt;m_s_object_near -->
<g id="edge10" class="edge">
<title>collect_object&#45;&gt;m_s_object_near</title>
<path fill="none" stroke="black" d="M425.45,-268.88C406.49,-258.74 382.41,-245.88 362.76,-235.37"/>
<polygon fill="black" stroke="black" points="364.26,-232.21 353.79,-230.58 360.96,-238.38 364.26,-232.21"/>
</g>
<!-- m_s_object_picked -->
<g id="node14" class="node">
<title>m_s_object_picked</title>
<polygon fill="cyan" stroke="black" points="510.74,-207.54 510.74,-222.46 479.55,-233 435.45,-233 404.26,-222.46 404.26,-207.54 435.45,-197 479.55,-197 510.74,-207.54"/>
<text text-anchor="middle" x="457.5" y="-212.8" font-family="Times,serif" font-size="9.00">m_s_object_picked</text>
</g>
<!-- collect_object&#45;&gt;m_s_object_picked -->
<g id="edge13" class="edge">
<title>collect_object&#45;&gt;m_s_object_picked</title>
<path fill="none" stroke="black" d="M457.5,-268.7C457.5,-260.98 457.5,-251.71 457.5,-243.11"/>
<polygon fill="black" stroke="black" points="461,-243.1 457.5,-233.1 454,-243.1 461,-243.1"/>
</g>
<!-- object_near -->
<g id="node12" class="node">
<title>object_near</title>
<ellipse fill="gray" stroke="black" cx="214.5" cy="-143" rx="32.82" ry="18"/>
<text text-anchor="middle" x="214.5" y="-140.8" font-family="Times,serif" font-size="9.00">object_near</text>
</g>
<!-- m_s_object_near&#45;&gt;object_near -->
<g id="edge11" class="edge">
<title>m_s_object_near&#45;&gt;object_near</title>
<path fill="none" stroke="black" d="M301.92,-198.64C284.92,-188.01 262.21,-173.82 244.2,-162.56"/>
<polygon fill="black" stroke="black" points="245.6,-159.31 235.26,-156.98 241.89,-165.25 245.6,-159.31"/>
</g>
<!-- drive_to_object -->
<g id="node13" class="node">
<title>drive_to_object</title>
<ellipse fill="gray" stroke="black" cx="306.5" cy="-143" rx="40.98" ry="18"/>
<text text-anchor="middle" x="306.5" y="-140.8" font-family="Times,serif" font-size="9.00">drive_to_object</text>
</g>
<!-- m_s_object_near&#45;&gt;drive_to_object -->
<g id="edge12" class="edge">
<title>m_s_object_near&#45;&gt;drive_to_object</title>
<path fill="none" stroke="black" d="M321.56,-196.7C319.33,-188.9 316.65,-179.51 314.17,-170.83"/>
<polygon fill="black" stroke="black" points="317.5,-169.76 311.39,-161.1 310.77,-171.68 317.5,-169.76"/>
</g>
<!-- object_at_hand -->
<g id="node15" class="node">
<title>object_at_hand</title>
<ellipse fill="gray" stroke="black" cx="405.5" cy="-143" rx="40.33" ry="18"/>
<text text-anchor="middle" x="405.5" y="-140.8" font-family="Times,serif" font-size="9.00">object_at_hand</text>
</g>
<!-- m_s_object_picked&#45;&gt;object_at_hand -->
<g id="edge14" class="edge">
<title>m_s_object_picked&#45;&gt;object_at_hand</title>
<path fill="none" stroke="black" d="M444.65,-196.7C438.38,-188.27 430.74,-177.97 423.87,-168.73"/>
<polygon fill="black" stroke="black" points="426.62,-166.56 417.85,-160.62 421,-170.74 426.62,-166.56"/>
</g>
<!-- pick_object -->
<g id="node16" class="node">
<title>pick_object</title>
<ellipse fill="gray" stroke="black" cx="496.5" cy="-143" rx="32.82" ry="18"/>
<text text-anchor="middle" x="496.5" y="-140.8" font-family="Times,serif" font-size="9.00">pick_object</text>
</g>
<!-- m_s_object_picked&#45;&gt;pick_object -->
<g id="edge15" class="edge">
<title>m_s_object_picked&#45;&gt;pick_object</title>
<path fill="none" stroke="black" d="M467.14,-196.7C471.69,-188.52 477.22,-178.6 482.25,-169.58"/>
<polygon fill="black" stroke="black" points="485.43,-171.06 487.24,-160.62 479.31,-167.65 485.43,-171.06"/>
</g>
<!-- m_s_object_in_hand -->
<g id="node18" class="node">
<title>m_s_object_in_hand</title>
<polygon fill="cyan" stroke="black" points="646.99,-207.54 646.99,-222.46 613.9,-233 567.1,-233 534.01,-222.46 534.01,-207.54 567.1,-197 613.9,-197 646.99,-207.54"/>
<text text-anchor="middle" x="590.5" y="-212.8" font-family="Times,serif" font-size="9.00">m_s_object_in_hand</text>
</g>
<!-- place_object_&#45;&gt;m_s_object_in_hand -->
<g id="edge17" class="edge">
<title>place_object_&#45;&gt;m_s_object_in_hand</title>
<path fill="none" stroke="black" d="M571.68,-268.7C574.5,-260.81 577.89,-251.3 581.02,-242.55"/>
<polygon fill="black" stroke="black" points="584.32,-243.7 584.39,-233.1 577.73,-241.34 584.32,-243.7"/>
</g>
<!-- go_and_place -->
<g id="node21" class="node">
<title>go_and_place</title>
<polygon fill="orange" stroke="black" points="929,-233 852,-233 852,-197 929,-197 929,-233"/>
<text text-anchor="middle" x="890.5" y="-212.8" font-family="Times,serif" font-size="9.00">Ⓜ go_and_place</text>
</g>
<!-- place_object_&#45;&gt;go_and_place -->
<g id="edge20" class="edge">
<title>place_object_&#45;&gt;go_and_place</title>
<path fill="none" stroke="black" d="M598.29,-272C601.38,-270.91 604.48,-269.88 607.5,-269 688.11,-245.39 784.83,-229.94 841.78,-222.11"/>
<polygon fill="black" stroke="black" points="842.5,-225.55 851.94,-220.74 841.56,-218.61 842.5,-225.55"/>
</g>
<!-- object_at_hand* -->
<g id="node19" class="node">
<title>object_at_hand*</title>
<ellipse fill="gray" stroke="black" cx="590.5" cy="-143" rx="42.95" ry="18"/>
<text text-anchor="middle" x="590.5" y="-140.8" font-family="Times,serif" font-size="9.00">object_at_hand*</text>
</g>
<!-- m_s_object_in_hand&#45;&gt;object_at_hand* -->
<g id="edge18" class="edge">
<title>m_s_object_in_hand&#45;&gt;object_at_hand*</title>
<path fill="none" stroke="black" d="M590.5,-196.7C590.5,-188.98 590.5,-179.71 590.5,-171.11"/>
<polygon fill="black" stroke="black" points="594,-171.1 590.5,-161.1 587,-171.1 594,-171.1"/>
</g>
<!-- get_object_back_dummy -->
<g id="node20" class="node">
<title>get_object_back_dummy</title>
<ellipse fill="gray" stroke="black" cx="711.5" cy="-143" rx="60.74" ry="18"/>
<text text-anchor="middle" x="711.5" y="-140.8" font-family="Times,serif" font-size="9.00">get_object_back_dummy</text>
</g>
<!-- m_s_object_in_hand&#45;&gt;get_object_back_dummy -->
<g id="edge19" class="edge">
<title>m_s_object_in_hand&#45;&gt;get_object_back_dummy</title>
<path fill="none" stroke="black" d="M617.96,-198.12C635.21,-188.13 657.65,-175.16 676.22,-164.41"/>
<polygon fill="black" stroke="black" points="678.08,-167.38 684.98,-159.34 674.57,-161.32 678.08,-167.38"/>
</g>
<!-- m_s_box_found -->
<g id="node22" class="node">
<title>m_s_box_found</title>
<polygon fill="cyan" stroke="black" points="883.24,-135.54 883.24,-150.46 855.86,-161 817.14,-161 789.76,-150.46 789.76,-135.54 817.14,-125 855.86,-125 883.24,-135.54"/>
<text text-anchor="middle" x="836.5" y="-140.8" font-family="Times,serif" font-size="9.00">m_s_box_found</text>
</g>
<!-- go_and_place&#45;&gt;m_s_box_found -->
<g id="edge21" class="edge">
<title>go_and_place&#45;&gt;m_s_box_found</title>
<path fill="none" stroke="black" d="M877.15,-196.7C870.74,-188.39 862.94,-178.28 855.89,-169.14"/>
<polygon fill="black" stroke="black" points="858.57,-166.88 849.69,-161.1 853.03,-171.16 858.57,-166.88"/>
</g>
<!-- m_s_box_near -->
<g id="node25" class="node">
<title>m_s_box_near</title>
<polygon fill="cyan" stroke="black" points="987.74,-135.54 987.74,-150.46 962.41,-161 926.59,-161 901.26,-150.46 901.26,-135.54 926.59,-125 962.41,-125 987.74,-135.54"/>
<text text-anchor="middle" x="944.5" y="-140.8" font-family="Times,serif" font-size="9.00">m_s_box_near</text>
</g>
<!-- go_and_place&#45;&gt;m_s_box_near -->
<g id="edge24" class="edge">
<title>go_and_place&#45;&gt;m_s_box_near</title>
<path fill="none" stroke="black" d="M903.85,-196.7C910.26,-188.39 918.06,-178.28 925.11,-169.14"/>
<polygon fill="black" stroke="black" points="927.97,-171.16 931.31,-161.1 922.43,-166.88 927.97,-171.16"/>
</g>
<!-- m_s_object_placed -->
<g id="node28" class="node">
<title>m_s_object_placed</title>
<polygon fill="cyan" stroke="black" points="1157.99,-135.54 1157.99,-150.46 1127.24,-161 1083.76,-161 1053.01,-150.46 1053.01,-135.54 1083.76,-125 1127.24,-125 1157.99,-135.54"/>
<text text-anchor="middle" x="1105.5" y="-140.8" font-family="Times,serif" font-size="9.00">m_s_object_placed</text>
</g>
<!-- go_and_place&#45;&gt;m_s_object_placed -->
<g id="edge27" class="edge">
<title>go_and_place&#45;&gt;m_s_object_placed</title>
<path fill="none" stroke="black" d="M929.43,-201.32C965.76,-189.5 1020.01,-171.83 1058.68,-159.24"/>
<polygon fill="black" stroke="black" points="1060.22,-162.42 1068.65,-156 1058.06,-155.77 1060.22,-162.42"/>
</g>
<!-- box_found -->
<g id="node23" class="node">
<title>box_found</title>
<ellipse fill="gray" stroke="black" cx="741.5" cy="-71" rx="32.16" ry="18"/>
<text text-anchor="middle" x="741.5" y="-68.8" font-family="Times,serif" font-size="9.00">box_found</text>
</g>
<!-- m_s_box_found&#45;&gt;box_found -->
<g id="edge22" class="edge">
<title>m_s_box_found&#45;&gt;box_found</title>
<path fill="none" stroke="black" d="M814.47,-125.76C800.72,-115.64 782.93,-102.53 768.36,-91.79"/>
<polygon fill="black" stroke="black" points="770.34,-88.9 760.21,-85.79 766.19,-94.54 770.34,-88.9"/>
</g>
<!-- wonder_around* -->
<g id="node24" class="node">
<title>wonder_around*</title>
<ellipse fill="gray" stroke="black" cx="836.5" cy="-71" rx="44.41" ry="18"/>
<text text-anchor="middle" x="836.5" y="-68.8" font-family="Times,serif" font-size="9.00">wonder_around*</text>
</g>
<!-- m_s_box_found&#45;&gt;wonder_around* -->
<g id="edge23" class="edge">
<title>m_s_box_found&#45;&gt;wonder_around*</title>
<path fill="none" stroke="black" d="M836.5,-124.7C836.5,-116.98 836.5,-107.71 836.5,-99.11"/>
<polygon fill="black" stroke="black" points="840,-99.1 836.5,-89.1 833,-99.1 840,-99.1"/>
</g>
<!-- /target_box -->
<g id="node41" class="node">
<title>/target_box</title>
<polygon fill="white" stroke="blue" points="936,-17 877,-17 877,0 936,0 936,-17"/>
<text text-anchor="middle" x="906.5" y="-6.6" font-family="Times,serif" font-size="8.00" fill="blue">/target_box: &#45;</text>
</g>
<!-- box_found&#45;&gt;/target_box -->
<g id="edge52" class="edge">
<title>box_found&#45;&gt;/target_box</title>
<path fill="none" stroke="blue" d="M766.75,-59.57C772.25,-57.35 778.06,-55.06 783.5,-53 814.22,-41.36 849.6,-28.95 874.51,-20.37"/>
<polygon fill="blue" stroke="blue" points="875.85,-23.62 884.17,-17.06 873.58,-16.99 875.85,-23.62"/>
</g>
<!-- box_near -->
<g id="node26" class="node">
<title>box_near</title>
<ellipse fill="gray" stroke="black" cx="927.5" cy="-71" rx="28.74" ry="18"/>
<text text-anchor="middle" x="927.5" y="-68.8" font-family="Times,serif" font-size="9.00">box_near</text>
</g>
<!-- m_s_box_near&#45;&gt;box_near -->
<g id="edge25" class="edge">
<title>m_s_box_near&#45;&gt;box_near</title>
<path fill="none" stroke="black" d="M940.3,-124.7C938.4,-116.9 936.12,-107.51 934.02,-98.83"/>
<polygon fill="black" stroke="black" points="937.42,-98 931.65,-89.1 930.61,-99.65 937.42,-98"/>
</g>
<!-- drive_to_box -->
<g id="node27" class="node">
<title>drive_to_box</title>
<ellipse fill="gray" stroke="black" cx="1011.5" cy="-71" rx="36.9" ry="18"/>
<text text-anchor="middle" x="1011.5" y="-68.8" font-family="Times,serif" font-size="9.00">drive_to_box</text>
</g>
<!-- m_s_box_near&#45;&gt;drive_to_box -->
<g id="edge26" class="edge">
<title>m_s_box_near&#45;&gt;drive_to_box</title>
<path fill="none" stroke="black" d="M961.06,-124.7C969.62,-115.75 980.19,-104.71 989.43,-95.06"/>
<polygon fill="black" stroke="black" points="992.11,-97.32 996.5,-87.67 987.06,-92.48 992.11,-97.32"/>
</g>
<!-- box_near&#45;&gt;/target_box -->
<g id="edge53" class="edge">
<title>box_near&#45;&gt;/target_box</title>
<path fill="none" stroke="blue" d="M921.65,-53.15C918.82,-44.98 915.41,-35.18 912.55,-26.93"/>
<polygon fill="blue" stroke="blue" points="915.78,-25.56 909.19,-17.26 909.17,-27.86 915.78,-25.56"/>
</g>
<!-- object_in_box -->
<g id="node29" class="node">
<title>object_in_box</title>
<ellipse fill="gray" stroke="black" cx="1105.5" cy="-71" rx="38.87" ry="18"/>
<text text-anchor="middle" x="1105.5" y="-68.8" font-family="Times,serif" font-size="9.00">object_in_box</text>
</g>
<!-- m_s_object_placed&#45;&gt;object_in_box -->
<g id="edge28" class="edge">
<title>m_s_object_placed&#45;&gt;object_in_box</title>
<path fill="none" stroke="black" d="M1105.5,-124.7C1105.5,-116.98 1105.5,-107.71 1105.5,-99.11"/>
<polygon fill="black" stroke="black" points="1109,-99.1 1105.5,-89.1 1102,-99.1 1109,-99.1"/>
</g>
<!-- place_object -->
<g id="node30" class="node">
<title>place_object</title>
<ellipse fill="gray" stroke="black" cx="1196.5" cy="-71" rx="34.78" ry="18"/>
<text text-anchor="middle" x="1196.5" y="-68.8" font-family="Times,serif" font-size="9.00">place_object</text>
</g>
<!-- m_s_object_placed&#45;&gt;place_object -->
<g id="edge29" class="edge">
<title>m_s_object_placed&#45;&gt;place_object</title>
<path fill="none" stroke="black" d="M1127.53,-125.05C1140.25,-115.27 1156.34,-102.89 1169.78,-92.56"/>
<polygon fill="black" stroke="black" points="1171.96,-95.3 1177.75,-86.42 1167.69,-89.75 1171.96,-95.3"/>
</g>
<!-- mark_work_done&#45;&gt;/is_work_not_done -->
<g id="edge50" class="edge">
<title>mark_work_done&#45;&gt;/is_work_not_done</title>
<path fill="none" stroke="blue" d="M707.75,-283.34C869.97,-272.36 1404.25,-222.76 1240.5,-53 1201.94,-13.03 296.91,-20.76 241.5,-17 234.06,-16.49 226.21,-15.84 218.5,-15.13"/>
<polygon fill="blue" stroke="blue" points="218.8,-11.64 208.51,-14.18 218.13,-18.61 218.8,-11.64"/>
</g>
<!-- /target_object -->
<g id="node32" class="node">
<title>/target_object</title>
<polygon fill="white" stroke="blue" points="406.5,-17 338.5,-17 338.5,0 406.5,0 406.5,-17"/>
<text text-anchor="middle" x="372.5" y="-6.6" font-family="Times,serif" font-size="8.00" fill="blue">/target_object: &#45;</text>
</g>
<!-- /target_object&#45;&gt;object_near -->
<g id="edge34" class="edge">
<title>/target_object&#45;&gt;object_near</title>
<path fill="none" stroke="green" d="M338.18,-14.37C297.21,-20.95 232.34,-34.09 217.5,-53 203.97,-70.24 204.5,-95.67 207.67,-114.94"/>
<polygon fill="green" stroke="green" points="204.27,-115.79 209.64,-124.92 211.14,-114.44 204.27,-115.79"/>
</g>
<!-- /target_object&#45;&gt;drive_to_object -->
<g id="edge32" class="edge">
<title>/target_object&#45;&gt;drive_to_object</title>
<path fill="none" stroke="green" d="M343.84,-17.13C325.95,-23.54 304.33,-34.67 293.5,-53 282.25,-72.03 287.42,-97.23 294.29,-115.95"/>
<polygon fill="green" stroke="green" points="291.09,-117.38 298.07,-125.35 297.58,-114.77 291.09,-117.38"/>
</g>
<!-- /target_object&#45;&gt;pick_object -->
<g id="edge31" class="edge">
<title>/target_object&#45;&gt;pick_object</title>
<path fill="none" stroke="green" d="M379.52,-17C397.61,-36.33 446.37,-88.43 474.9,-118.92"/>
<polygon fill="green" stroke="green" points="472.64,-121.63 482.03,-126.54 477.76,-116.85 472.64,-121.63"/>
</g>
<!-- /target_object&#45;&gt;box_found -->
<g id="edge33" class="edge">
<title>/target_object&#45;&gt;box_found</title>
<path fill="none" stroke="green" d="M406.76,-15.12C475,-26.31 627.57,-51.32 700.78,-63.32"/>
<polygon fill="green" stroke="green" points="700.55,-66.83 710.99,-65 701.69,-59.93 700.55,-66.83"/>
</g>
<!-- /object_poses -->
<g id="node33" class="node">
<title>/object_poses</title>
<polygon fill="white" stroke="blue" points="570,-17 503,-17 503,0 570,0 570,-17"/>
<text text-anchor="middle" x="536.5" y="-6.6" font-family="Times,serif" font-size="8.00" fill="blue">/object_poses: &#45;</text>
</g>
<!-- /object_poses&#45;&gt;object_near -->
<g id="edge37" class="edge">
<title>/object_poses&#45;&gt;object_near</title>
<path fill="none" stroke="green" d="M508.12,-17.04C479.72,-24.89 434.98,-38.12 397.5,-53 342.94,-74.66 282.12,-105.7 246.14,-124.81"/>
<polygon fill="green" stroke="green" points="244.28,-121.84 237.11,-129.64 247.58,-128.01 244.28,-121.84"/>
</g>
<!-- /object_poses&#45;&gt;drive_to_object -->
<g id="edge36" class="edge">
<title>/object_poses&#45;&gt;drive_to_object</title>
<path fill="none" stroke="green" d="M523.32,-17.09C487.97,-37.46 390.29,-93.73 338.97,-123.3"/>
<polygon fill="green" stroke="green" points="337.17,-120.29 330.25,-128.32 340.66,-126.36 337.17,-120.29"/>
</g>
<!-- /object_poses&#45;&gt;pick_object -->
<g id="edge35" class="edge">
<title>/object_poses&#45;&gt;pick_object</title>
<path fill="none" stroke="green" d="M534.21,-17.09C528.58,-35.72 513.87,-84.47 504.57,-115.26"/>
<polygon fill="green" stroke="green" points="501.19,-114.36 501.65,-124.95 507.89,-116.39 501.19,-114.36"/>
</g>
<!-- /place_start_time -->
<g id="node34" class="node">
<title>/place_start_time</title>
<polygon fill="white" stroke="blue" points="1100.5,-17 1020.5,-17 1020.5,0 1100.5,0 1100.5,-17"/>
<text text-anchor="middle" x="1060.5" y="-6.6" font-family="Times,serif" font-size="8.00" fill="blue">/place_start_time: &#45;</text>
</g>
<!-- /place_start_time&#45;&gt;object_in_box -->
<g id="edge38" class="edge">
<title>/place_start_time&#45;&gt;object_in_box</title>
<path fill="none" stroke="green" d="M1066.16,-17.11C1071.48,-24.26 1079.73,-35.36 1087.31,-45.55"/>
<polygon fill="green" stroke="green" points="1084.66,-47.85 1093.44,-53.79 1090.28,-43.67 1084.66,-47.85"/>
</g>
<!-- /place_start_time&#45;&gt;place_object -->
<g id="edge39" class="edge">
<title>/place_start_time&#45;&gt;place_object</title>
<path fill="none" stroke="green" d="M1077.38,-17.01C1098.37,-26.35 1134.74,-42.52 1161.78,-54.56"/>
<polygon fill="green" stroke="green" points="1160.36,-57.75 1170.92,-58.62 1163.21,-51.36 1160.36,-57.75"/>
</g>
<!-- /box_list -->
<g id="node35" class="node">
<title>/box_list</title>
<polygon fill="white" stroke="blue" points="482,-17 431,-17 431,0 482,0 482,-17"/>
<text text-anchor="middle" x="456.5" y="-6.6" font-family="Times,serif" font-size="8.00" fill="blue">/box_list: &#45;</text>
</g>
<!-- /box_list&#45;&gt;box_found -->
<g id="edge40" class="edge">
<title>/box_list&#45;&gt;box_found</title>
<path fill="none" stroke="green" d="M482.38,-14.99C532.34,-25.6 642.35,-48.95 701.69,-61.55"/>
<polygon fill="green" stroke="green" points="701.3,-65.04 711.81,-63.7 702.75,-58.2 701.3,-65.04"/>
</g>
<!-- /box_poses -->
<g id="node37" class="node">
<title>/box_poses</title>
<polygon fill="white" stroke="blue" points="818,-17 759,-17 759,0 818,0 818,-17"/>
<text text-anchor="middle" x="788.5" y="-6.6" font-family="Times,serif" font-size="8.00" fill="blue">/box_poses: &#45;</text>
</g>
<!-- /box_poses&#45;&gt;box_near -->
<g id="edge43" class="edge">
<title>/box_poses&#45;&gt;box_near</title>
<path fill="none" stroke="green" d="M806.41,-17.13C826.63,-25.75 860.48,-40.26 889.5,-53 891.34,-53.81 893.22,-54.64 895.12,-55.48"/>
<polygon fill="green" stroke="green" points="894.06,-58.83 904.62,-59.7 896.9,-52.44 894.06,-58.83"/>
</g>
<!-- /box_poses&#45;&gt;drive_to_box -->
<g id="edge42" class="edge">
<title>/box_poses&#45;&gt;drive_to_box</title>
<path fill="none" stroke="green" d="M818.22,-15.73C853.61,-23.39 914.37,-37.32 965.5,-53 968.25,-53.84 971.07,-54.76 973.9,-55.71"/>
<polygon fill="green" stroke="green" points="972.86,-59.06 983.45,-59.06 975.17,-52.45 972.86,-59.06"/>
</g>
<!-- /is_pick_done -->
<g id="node38" class="node">
<title>/is_pick_done</title>
<polygon fill="white" stroke="blue" points="657.5,-17 589.5,-17 589.5,0 657.5,0 657.5,-17"/>
<text text-anchor="middle" x="623.5" y="-6.6" font-family="Times,serif" font-size="8.00" fill="blue">/is_pick_done: &#45;</text>
</g>
<!-- /is_pick_done&#45;&gt;object_at_hand -->
<g id="edge44" class="edge">
<title>/is_pick_done&#45;&gt;object_at_hand</title>
<path fill="none" stroke="green" d="M611.06,-17.06C577.78,-37.29 485.89,-93.14 437.02,-122.84"/>
<polygon fill="green" stroke="green" points="435.15,-119.89 428.42,-128.07 438.78,-125.87 435.15,-119.89"/>
</g>
<!-- /is_pick_done&#45;&gt;object_at_hand* -->
<g id="edge45" class="edge">
<title>/is_pick_done&#45;&gt;object_at_hand*</title>
<path fill="none" stroke="green" d="M621.61,-17.09C616.99,-35.64 604.93,-84.04 597.26,-114.86"/>
<polygon fill="green" stroke="green" points="593.77,-114.4 594.75,-124.95 600.56,-116.09 593.77,-114.4"/>
</g>
<!-- /object_list&#45;&gt;object_found -->
<g id="edge46" class="edge">
<title>/object_list&#45;&gt;object_found</title>
<path fill="none" stroke="green" d="M32.92,-17.1C45.39,-44.82 88.76,-141.23 109.83,-188.07"/>
<polygon fill="green" stroke="green" points="106.68,-189.58 113.97,-197.26 113.06,-186.71 106.68,-189.58"/>
</g>
<!-- /is_work_not_done&#45;&gt;work_not_done -->
<g id="edge48" class="edge">
<title>/is_work_not_done&#45;&gt;work_not_done</title>
<path fill="none" stroke="green" d="M162.11,-17.31C139.67,-46.23 48.14,-149.81 85.5,-233 141.67,-358.09 240.87,-310.28 374.5,-341 377.87,-341.78 381.34,-342.63 384.81,-343.53"/>
<polygon fill="green" stroke="green" points="383.92,-346.91 394.49,-346.15 385.75,-340.15 383.92,-346.91"/>
</g>
<!-- /target_box&#45;&gt;drive_to_box -->
<g id="edge51" class="edge">
<title>/target_box&#45;&gt;drive_to_box</title>
<path fill="none" stroke="green" d="M919.58,-17.03C934.5,-25.63 959.45,-40.01 979.59,-51.62"/>
<polygon fill="green" stroke="green" points="978.05,-54.76 988.46,-56.72 981.54,-48.7 978.05,-54.76"/>
</g>
</g>
</svg>
